
<svg viewBox="0 0 570 587" version="1.1" style={{
                fill: "#ffffff"
              }}>
    <g id="layer101" transform="matrix(1,0,0,1,-9.76836,10.6267)">
        <path d="M188.9,489C182.8,487.9 176.8,484.8 173.6,481C170.4,477.2 169.6,474.1 170.3,468.8C170.8,464.9 171.9,463.2 182.2,448.7C188,440.7 190.1,434.1 191,420.8C191.5,414.4 192.4,408.2 193,407C194.5,404.2 193.8,403.5 191.2,405.1C189.5,406.2 188.4,406.1 184.8,404.5C178.4,401.7 168.1,395.7 161.9,391.1C153.5,384.8 138.2,368.9 131,359.1C127.4,354.2 124.2,350.1 123.9,350.1C122.8,349.9 119,357.8 119,360.2C119,361.5 119.9,366 121,370.1C125.5,386.9 122.4,393.5 105,404.7C100.3,407.7 94.8,411.8 92.8,413.7L89.1,417.3L82.5,410.9C76.2,404.9 75.9,404.3 76.4,401C76.7,399.1 78.4,387.2 80,374.5C81.7,361.9 84,347.9 85.1,343.5C88.8,328.2 96.3,315.8 104.4,311.5L107.9,309.6L107.9,300.9C107.9,289.2 110.9,280.5 120.9,263.1C133.3,241.5 132.2,245.3 132.1,223.9C132,210.7 131.5,203.6 130.4,200.1C128.6,193.9 121.4,185.7 114.8,182.4C109.4,179.6 97.3,176.8 84,175C73,173.6 64.9,171.4 57.9,167.9C51.1,164.5 50.5,163.8 49.1,157.2C47.7,150.6 45.1,145.3 39,137C30.3,125.1 30.6,125.7 32.9,121.2C36.1,115 42.8,110.9 53.3,108.9C56.2,108.4 66.5,107.3 76.2,106.5C86,105.6 95.1,104.5 96.5,104C99.7,102.8 100.6,99 98.6,95.2C97.1,92.3 97.1,92.1 98.9,91.5C100,91.2 102,91.2 103.4,91.6C105.6,92.1 106.8,91.5 110.4,88.2C112.8,86 115.6,83.7 116.8,83.1C121.7,80.5 133.6,78.8 153,77.9C164.3,77.4 177.8,76.7 183,76.4C193.7,75.7 201.6,77.2 210.4,81.6C215.4,84.1 227.2,92.6 231.7,96.9C233.2,98.3 235.2,99 237.9,99C240.1,99 242.2,99.5 242.5,100C242.9,100.6 248,104.9 253.8,109.6C273.6,125.5 288.2,140.5 289.9,146.6C292.1,154.6 287.5,161.7 271.7,174.4C268.6,176.8 266.1,179.9 264.9,182.8C263.8,185.3 260.9,189.5 258.4,192.2C256,194.8 254,197.8 254,198.9C254,200.1 254.9,207.4 256,215.2C257.2,223.1 257.8,230.5 257.5,231.7C257.1,233.3 257.8,234.2 260.3,235.7C277,245.4 293.7,246.1 326.5,238.5C356,231.6 360.4,231 382.1,231C404.2,231 412.2,232.1 425.1,237.1C439.5,242.7 453.9,252.4 476.7,271.8C490,283.1 489.1,281.7 492.5,297.2C495.5,311.6 505.3,320.7 539.5,341.5C562,355.2 560.4,353.5 553.4,356.7C548.3,359.1 545.9,359.5 536.3,359.8C526.8,360.2 523.9,359.9 517.8,358C506.1,354.4 498.8,349.7 492.9,341.6L490,337.8L484.5,349.3C475.4,368.2 475.2,374.3 483,391.9C487.7,402.6 488.7,407.7 487,411.1C486.3,412.4 482.7,416.4 479.1,420C472.5,426.4 471.4,428.3 468.8,437C467.7,440.7 466.8,441.8 463.4,443.5C457.1,446.6 456.3,447.5 453.4,456.3C451.7,461.3 449.6,465.6 447.9,467.3C445.3,469.9 444.6,470.1 440.3,469.4C426.9,467.5 412.2,462.1 405.6,456.6C403,454.4 402.8,453.9 403.5,449.2C404.2,444.2 404.2,444.2 409.3,442.5C421.4,438.6 435.9,428.6 442.1,419.9L444.2,416.8L440.4,412.8C438.2,410.6 431.6,405.1 425.5,400.5C409.2,388.2 402.8,380.9 399.9,371.3C399.2,368.9 398.2,367 397.6,367C397,367 391.8,371.9 386,377.9C380.2,383.9 374,389.7 372.1,390.8C369.5,392.4 368.1,394.4 366.1,399.7C364.6,403.4 361,411.5 358.1,417.7C353.1,428.2 352.5,429 348.6,430.5C338.5,434.6 325.7,433 311.3,425.9C302.3,421.4 302,421 304.2,413.8C305.9,408.1 311.3,402.6 321,396.7L329.5,391.4L330.2,385C330.5,381.4 331.1,377.5 331.5,376.3C332.2,374 332.2,374 328.4,375.6C321.2,378.6 309.6,384.7 295.6,392.9C287.9,397.4 278.8,402.4 275.4,404C267.8,407.5 253.8,412 250.5,412C247.2,412 240.8,417.9 236.6,424.9C231.8,432.9 228.5,442.8 223.4,464.3C221,474.7 218.8,483.5 218.5,484C218.2,484.5 215.5,485.8 212.6,486.9C206.3,489.2 195.5,490.2 188.9,489Z" style="fill-rule:nonzero;"/>
    </g>
</svg>
