<?xml version="1.0" encoding="UTF-8" standalone="no"?>
<svg width="100%" height="100%" viewBox="0 0 1600 400" version="1.1" xmlns="http://www.w3.org/2000/svg" xmlns:xlink="http://www.w3.org/1999/xlink" xml:space="preserve" xmlns:serif="http://www.serif.com/" style="fill-rule:evenodd;clip-rule:evenodd;stroke-linejoin:round;stroke-miterlimit:1.41421;">
    <g transform="matrix(1,0,0,1,30.5109,53.7565)">
        <g transform="matrix(266.667,0,0,266.667,0,224)">
            <path d="M1.018,-0.824C1.032,-0.831 1.046,-0.832 1.061,-0.827C1.076,-0.822 1.086,-0.811 1.092,-0.796C1.097,-0.783 1.098,-0.771 1.093,-0.76C1.088,-0.748 1.083,-0.737 1.077,-0.726C1.068,-0.707 1.059,-0.688 1.05,-0.669C1.041,-0.65 1.032,-0.63 1.024,-0.611C1.008,-0.572 0.994,-0.533 0.981,-0.494C0.967,-0.454 0.957,-0.414 0.948,-0.373C0.945,-0.36 0.943,-0.348 0.941,-0.335C0.938,-0.322 0.936,-0.31 0.935,-0.297L0.979,-0.275C0.986,-0.272 0.993,-0.268 1.001,-0.265C1.009,-0.262 1.016,-0.257 1.022,-0.252C1.028,-0.247 1.032,-0.241 1.033,-0.234C1.034,-0.227 1.034,-0.22 1.032,-0.213C1.029,-0.206 1.025,-0.199 1.02,-0.194C1.015,-0.189 1.009,-0.185 1.002,-0.183C0.997,-0.182 0.992,-0.182 0.988,-0.183C0.984,-0.184 0.98,-0.186 0.975,-0.188L0.927,-0.208C0.927,-0.195 0.927,-0.182 0.928,-0.169C0.929,-0.156 0.93,-0.142 0.931,-0.129C0.933,-0.109 0.937,-0.089 0.942,-0.07C0.947,-0.05 0.954,-0.031 0.963,-0.013C0.966,-0.008 0.969,-0.003 0.973,0.003C0.977,0.008 0.981,0.013 0.985,0.018C0.988,0.023 0.991,0.029 0.994,0.035C0.997,0.04 0.998,0.046 0.998,0.052C0.998,0.064 0.994,0.077 0.987,0.092C0.98,0.106 0.97,0.118 0.959,0.129C0.948,0.14 0.935,0.147 0.921,0.152C0.907,0.157 0.893,0.155 0.879,0.148C0.867,0.142 0.856,0.131 0.845,0.115C0.834,0.099 0.824,0.082 0.815,0.063C0.806,0.044 0.799,0.024 0.793,0.005C0.786,-0.014 0.782,-0.031 0.779,-0.045C0.772,-0.08 0.768,-0.116 0.767,-0.152C0.766,-0.187 0.768,-0.223 0.772,-0.259C0.739,-0.268 0.705,-0.275 0.671,-0.282C0.637,-0.288 0.603,-0.293 0.569,-0.296L0.546,-0.298C0.527,-0.271 0.507,-0.245 0.488,-0.218C0.469,-0.191 0.449,-0.165 0.43,-0.139C0.412,-0.116 0.394,-0.092 0.375,-0.068C0.356,-0.044 0.337,-0.021 0.317,0.002C0.296,0.025 0.275,0.046 0.252,0.066C0.229,0.085 0.204,0.102 0.178,0.117C0.169,0.122 0.159,0.128 0.148,0.133C0.137,0.138 0.126,0.142 0.115,0.146C0.103,0.149 0.091,0.152 0.08,0.153C0.068,0.154 0.057,0.153 0.046,0.15C0.027,0.144 0.016,0.133 0.011,0.117C0.006,0.101 0.005,0.084 0.01,0.067C0.015,0.05 0.023,0.034 0.034,0.019C0.045,0.004 0.058,-0.005 0.073,-0.008C0.097,-0.013 0.12,-0.025 0.141,-0.043C0.162,-0.06 0.184,-0.079 0.205,-0.098C0.238,-0.13 0.269,-0.163 0.299,-0.196C0.328,-0.229 0.358,-0.263 0.387,-0.298C0.365,-0.296 0.342,-0.293 0.319,-0.289C0.294,-0.285 0.269,-0.279 0.242,-0.27C0.215,-0.261 0.192,-0.247 0.172,-0.229C0.168,-0.225 0.165,-0.222 0.162,-0.219C0.159,-0.216 0.154,-0.215 0.148,-0.215C0.138,-0.214 0.128,-0.215 0.117,-0.216C0.106,-0.217 0.095,-0.219 0.086,-0.222C0.077,-0.225 0.068,-0.231 0.061,-0.238C0.054,-0.245 0.049,-0.254 0.046,-0.265C0.043,-0.281 0.046,-0.295 0.055,-0.306C0.064,-0.317 0.074,-0.328 0.085,-0.337C0.1,-0.349 0.117,-0.359 0.134,-0.368C0.151,-0.377 0.168,-0.384 0.186,-0.391C0.234,-0.408 0.284,-0.418 0.336,-0.422C0.387,-0.426 0.439,-0.425 0.491,-0.42C0.529,-0.464 0.568,-0.507 0.607,-0.548C0.646,-0.589 0.687,-0.629 0.73,-0.667C0.766,-0.699 0.803,-0.728 0.841,-0.754C0.879,-0.78 0.92,-0.802 0.964,-0.821C0.973,-0.824 0.982,-0.827 0.992,-0.829C1.002,-0.831 1.011,-0.829 1.018,-0.824ZM0.67,-0.39C0.69,-0.385 0.71,-0.379 0.73,-0.374C0.75,-0.368 0.77,-0.362 0.79,-0.355C0.803,-0.409 0.82,-0.462 0.841,-0.515C0.866,-0.577 0.895,-0.638 0.93,-0.697C0.891,-0.678 0.857,-0.654 0.826,-0.627C0.795,-0.599 0.763,-0.567 0.731,-0.532C0.712,-0.511 0.693,-0.489 0.675,-0.467C0.657,-0.445 0.639,-0.423 0.622,-0.4C0.63,-0.399 0.638,-0.397 0.646,-0.396C0.654,-0.394 0.662,-0.392 0.67,-0.39Z" style="fill-rule:nonzero;"/>
        </g>
        <g transform="matrix(266.667,0,0,266.667,293.333,224)">
            <path d="M0.385,-0.458C0.413,-0.455 0.434,-0.444 0.448,-0.426C0.461,-0.408 0.47,-0.386 0.473,-0.36C0.476,-0.334 0.474,-0.306 0.467,-0.275C0.46,-0.244 0.45,-0.213 0.436,-0.184C0.423,-0.156 0.408,-0.132 0.393,-0.112C0.377,-0.092 0.36,-0.075 0.343,-0.06C0.37,-0.065 0.395,-0.075 0.418,-0.088C0.441,-0.101 0.463,-0.117 0.483,-0.136C0.503,-0.155 0.522,-0.175 0.54,-0.198C0.557,-0.221 0.574,-0.245 0.589,-0.27C0.6,-0.287 0.61,-0.298 0.62,-0.304C0.63,-0.31 0.638,-0.312 0.644,-0.309C0.65,-0.306 0.654,-0.3 0.655,-0.29C0.656,-0.279 0.652,-0.267 0.645,-0.252C0.624,-0.209 0.598,-0.171 0.569,-0.136C0.54,-0.1 0.506,-0.071 0.469,-0.048C0.431,-0.025 0.389,-0.008 0.344,0.002C0.299,0.011 0.25,0.012 0.197,0.004C0.169,0.005 0.144,-0.001 0.123,-0.014C0.101,-0.027 0.085,-0.046 0.076,-0.071C0.067,-0.044 0.058,-0.016 0.05,0.013C0.041,0.042 0.034,0.069 0.028,0.095C0.021,0.12 0.016,0.144 0.013,0.165C0.01,0.186 0.009,0.203 0.01,0.216C0.011,0.225 0.006,0.233 -0.003,0.24C-0.012,0.246 -0.024,0.249 -0.037,0.248C-0.049,0.247 -0.063,0.243 -0.076,0.234C-0.089,0.225 -0.098,0.21 -0.104,0.189C-0.108,0.175 -0.108,0.153 -0.105,0.122C-0.101,0.091 -0.095,0.056 -0.086,0.018C-0.077,-0.022 -0.066,-0.063 -0.053,-0.107C-0.04,-0.15 -0.027,-0.193 -0.013,-0.234C0.001,-0.275 0.015,-0.312 0.03,-0.347C0.044,-0.382 0.057,-0.409 0.07,-0.429C0.078,-0.442 0.091,-0.45 0.108,-0.455C0.125,-0.459 0.142,-0.459 0.159,-0.456C0.176,-0.453 0.189,-0.446 0.199,-0.437C0.208,-0.427 0.209,-0.414 0.202,-0.399C0.197,-0.39 0.192,-0.378 0.185,-0.363C0.178,-0.347 0.17,-0.329 0.161,-0.308C0.197,-0.36 0.235,-0.399 0.275,-0.425C0.314,-0.451 0.351,-0.462 0.385,-0.458ZM0.149,-0.076C0.166,-0.071 0.186,-0.076 0.21,-0.091C0.234,-0.106 0.258,-0.134 0.281,-0.175C0.293,-0.196 0.302,-0.216 0.309,-0.235C0.316,-0.254 0.32,-0.272 0.321,-0.287C0.322,-0.302 0.321,-0.314 0.317,-0.324C0.312,-0.333 0.305,-0.338 0.295,-0.339C0.286,-0.34 0.274,-0.335 0.26,-0.327C0.245,-0.318 0.23,-0.304 0.213,-0.287C0.196,-0.27 0.178,-0.248 0.16,-0.223C0.142,-0.197 0.124,-0.168 0.107,-0.135C0.111,-0.103 0.125,-0.083 0.149,-0.076Z" style="fill-rule:nonzero;"/>
        </g>
        <g transform="matrix(266.667,0,0,266.667,450.4,224)">
            <path d="M0.385,-0.458C0.413,-0.455 0.434,-0.444 0.448,-0.426C0.461,-0.408 0.47,-0.386 0.473,-0.36C0.476,-0.334 0.474,-0.306 0.467,-0.275C0.46,-0.244 0.45,-0.213 0.436,-0.184C0.423,-0.156 0.408,-0.132 0.393,-0.112C0.377,-0.092 0.36,-0.075 0.343,-0.06C0.37,-0.065 0.395,-0.075 0.418,-0.088C0.441,-0.101 0.463,-0.117 0.483,-0.136C0.503,-0.155 0.522,-0.175 0.54,-0.198C0.557,-0.221 0.574,-0.245 0.589,-0.27C0.6,-0.287 0.61,-0.298 0.62,-0.304C0.63,-0.31 0.638,-0.312 0.644,-0.309C0.65,-0.306 0.654,-0.3 0.655,-0.29C0.656,-0.279 0.652,-0.267 0.645,-0.252C0.624,-0.209 0.598,-0.171 0.569,-0.136C0.54,-0.1 0.506,-0.071 0.469,-0.048C0.431,-0.025 0.389,-0.008 0.344,0.002C0.299,0.011 0.25,0.012 0.197,0.004C0.169,0.005 0.144,-0.001 0.123,-0.014C0.101,-0.027 0.085,-0.046 0.076,-0.071C0.067,-0.044 0.058,-0.016 0.05,0.013C0.041,0.042 0.034,0.069 0.028,0.095C0.021,0.12 0.016,0.144 0.013,0.165C0.01,0.186 0.009,0.203 0.01,0.216C0.011,0.225 0.006,0.233 -0.003,0.24C-0.012,0.246 -0.024,0.249 -0.037,0.248C-0.049,0.247 -0.063,0.243 -0.076,0.234C-0.089,0.225 -0.098,0.21 -0.104,0.189C-0.108,0.175 -0.108,0.153 -0.105,0.122C-0.101,0.091 -0.095,0.056 -0.086,0.018C-0.077,-0.022 -0.066,-0.063 -0.053,-0.107C-0.04,-0.15 -0.027,-0.193 -0.013,-0.234C0.001,-0.275 0.015,-0.312 0.03,-0.347C0.044,-0.382 0.057,-0.409 0.07,-0.429C0.078,-0.442 0.091,-0.45 0.108,-0.455C0.125,-0.459 0.142,-0.459 0.159,-0.456C0.176,-0.453 0.189,-0.446 0.199,-0.437C0.208,-0.427 0.209,-0.414 0.202,-0.399C0.197,-0.39 0.192,-0.378 0.185,-0.363C0.178,-0.347 0.17,-0.329 0.161,-0.308C0.197,-0.36 0.235,-0.399 0.275,-0.425C0.314,-0.451 0.351,-0.462 0.385,-0.458ZM0.149,-0.076C0.166,-0.071 0.186,-0.076 0.21,-0.091C0.234,-0.106 0.258,-0.134 0.281,-0.175C0.293,-0.196 0.302,-0.216 0.309,-0.235C0.316,-0.254 0.32,-0.272 0.321,-0.287C0.322,-0.302 0.321,-0.314 0.317,-0.324C0.312,-0.333 0.305,-0.338 0.295,-0.339C0.286,-0.34 0.274,-0.335 0.26,-0.327C0.245,-0.318 0.23,-0.304 0.213,-0.287C0.196,-0.27 0.178,-0.248 0.16,-0.223C0.142,-0.197 0.124,-0.168 0.107,-0.135C0.111,-0.103 0.125,-0.083 0.149,-0.076Z" style="fill-rule:nonzero;"/>
        </g>
        <g transform="matrix(266.667,0,0,266.667,607.467,224)">
            <path d="M0.512,-0.27C0.523,-0.287 0.533,-0.298 0.543,-0.304C0.553,-0.31 0.561,-0.312 0.567,-0.309C0.573,-0.306 0.577,-0.3 0.578,-0.29C0.579,-0.279 0.575,-0.267 0.568,-0.252C0.561,-0.237 0.551,-0.22 0.538,-0.202C0.525,-0.183 0.511,-0.165 0.495,-0.146C0.478,-0.127 0.46,-0.109 0.44,-0.092C0.419,-0.074 0.398,-0.058 0.375,-0.045C0.34,-0.024 0.302,-0.01 0.262,-0.004C0.221,0.002 0.183,0.001 0.147,-0.007C0.111,-0.014 0.079,-0.029 0.052,-0.051C0.024,-0.072 0.005,-0.1 -0.005,-0.134C-0.016,-0.17 -0.017,-0.207 -0.009,-0.245C0,-0.282 0.015,-0.317 0.037,-0.35C0.059,-0.383 0.086,-0.41 0.119,-0.433C0.152,-0.456 0.188,-0.47 0.227,-0.476C0.264,-0.481 0.297,-0.479 0.326,-0.469C0.355,-0.458 0.379,-0.444 0.397,-0.425C0.414,-0.405 0.425,-0.384 0.429,-0.361C0.433,-0.337 0.429,-0.314 0.416,-0.292C0.405,-0.274 0.391,-0.257 0.374,-0.242C0.357,-0.227 0.336,-0.214 0.311,-0.203C0.286,-0.192 0.258,-0.183 0.227,-0.178C0.195,-0.173 0.16,-0.171 0.121,-0.174C0.123,-0.149 0.131,-0.129 0.145,-0.114C0.158,-0.099 0.175,-0.089 0.196,-0.084C0.217,-0.079 0.239,-0.078 0.264,-0.081C0.289,-0.084 0.313,-0.09 0.336,-0.1C0.365,-0.112 0.395,-0.133 0.427,-0.163C0.458,-0.193 0.487,-0.229 0.512,-0.27ZM0.322,-0.395C0.309,-0.402 0.292,-0.403 0.273,-0.396C0.254,-0.389 0.234,-0.377 0.215,-0.361C0.196,-0.345 0.178,-0.326 0.162,-0.303C0.145,-0.28 0.134,-0.256 0.127,-0.231C0.161,-0.232 0.192,-0.241 0.221,-0.256C0.249,-0.271 0.272,-0.287 0.291,-0.306C0.31,-0.325 0.322,-0.343 0.329,-0.36C0.335,-0.377 0.333,-0.389 0.322,-0.395Z" style="fill-rule:nonzero;"/>
        </g>
        <g transform="matrix(266.667,0,0,266.667,744,224)">
            <path d="M-0.007,-0.606C0.016,-0.608 0.039,-0.611 0.062,-0.614C0.085,-0.616 0.109,-0.62 0.132,-0.623C0.142,-0.638 0.153,-0.653 0.164,-0.666C0.174,-0.679 0.186,-0.691 0.197,-0.701C0.213,-0.715 0.229,-0.724 0.244,-0.729C0.259,-0.733 0.273,-0.733 0.285,-0.729C0.297,-0.725 0.306,-0.717 0.313,-0.705C0.32,-0.693 0.323,-0.677 0.322,-0.658C0.366,-0.666 0.403,-0.672 0.434,-0.677C0.465,-0.682 0.485,-0.682 0.495,-0.678C0.506,-0.673 0.512,-0.666 0.515,-0.656C0.518,-0.645 0.517,-0.635 0.514,-0.624C0.511,-0.612 0.505,-0.602 0.497,-0.593C0.488,-0.584 0.478,-0.578 0.466,-0.575C0.461,-0.574 0.454,-0.573 0.443,-0.572C0.432,-0.571 0.418,-0.569 0.403,-0.568C0.387,-0.567 0.37,-0.566 0.351,-0.565C0.332,-0.564 0.312,-0.562 0.291,-0.561C0.278,-0.537 0.261,-0.511 0.24,-0.485C0.219,-0.458 0.195,-0.429 0.168,-0.399C0.166,-0.391 0.164,-0.383 0.161,-0.374C0.158,-0.365 0.155,-0.354 0.152,-0.343C0.148,-0.331 0.144,-0.316 0.14,-0.299C0.136,-0.281 0.132,-0.262 0.129,-0.243C0.126,-0.224 0.123,-0.204 0.122,-0.186C0.121,-0.167 0.121,-0.15 0.122,-0.135C0.123,-0.12 0.126,-0.109 0.131,-0.1C0.136,-0.091 0.143,-0.087 0.153,-0.088C0.163,-0.089 0.174,-0.095 0.186,-0.107C0.197,-0.118 0.209,-0.133 0.222,-0.15C0.234,-0.167 0.246,-0.187 0.259,-0.208C0.272,-0.229 0.284,-0.249 0.297,-0.27C0.308,-0.287 0.318,-0.298 0.328,-0.304C0.338,-0.31 0.346,-0.312 0.352,-0.309C0.358,-0.306 0.362,-0.3 0.363,-0.29C0.364,-0.279 0.36,-0.267 0.353,-0.252C0.346,-0.237 0.336,-0.218 0.324,-0.197C0.311,-0.175 0.298,-0.153 0.284,-0.131C0.269,-0.108 0.254,-0.087 0.239,-0.068C0.224,-0.048 0.209,-0.033 0.195,-0.022C0.182,-0.013 0.167,-0.006 0.149,-0.002C0.131,0.003 0.113,0.004 0.095,0.002C0.077,0 0.06,-0.006 0.045,-0.015C0.029,-0.024 0.017,-0.038 0.009,-0.056C-0.001,-0.077 -0.007,-0.101 -0.01,-0.127C-0.013,-0.153 -0.013,-0.181 -0.01,-0.21C-0.007,-0.239 -0.002,-0.268 0.005,-0.299C0.012,-0.33 0.021,-0.361 0.03,-0.392C0.038,-0.419 0.047,-0.447 0.058,-0.474C0.068,-0.501 0.079,-0.527 0.092,-0.552C0.064,-0.551 0.041,-0.55 0.022,-0.549C0.003,-0.548 -0.009,-0.548 -0.014,-0.547C-0.022,-0.546 -0.028,-0.548 -0.033,-0.554C-0.037,-0.559 -0.039,-0.566 -0.039,-0.574C-0.038,-0.581 -0.035,-0.588 -0.03,-0.595C-0.025,-0.601 -0.017,-0.605 -0.007,-0.606Z" style="fill-rule:nonzero;"/>
        </g>
        <g transform="matrix(266.667,0,0,266.667,823.2,224)">
            <path d="M0.553,-0.068C0.549,-0.085 0.549,-0.104 0.554,-0.125C0.558,-0.146 0.564,-0.167 0.571,-0.188C0.578,-0.209 0.585,-0.229 0.593,-0.25C0.601,-0.27 0.607,-0.288 0.611,-0.304C0.616,-0.325 0.612,-0.338 0.598,-0.341C0.584,-0.344 0.562,-0.333 0.532,-0.308C0.525,-0.303 0.516,-0.293 0.503,-0.278C0.49,-0.263 0.475,-0.245 0.46,-0.224C0.451,-0.187 0.44,-0.151 0.428,-0.116C0.416,-0.081 0.404,-0.053 0.393,-0.032C0.385,-0.018 0.374,-0.008 0.36,-0.001C0.345,0.006 0.331,0.009 0.316,0.009C0.301,0.008 0.288,0.004 0.277,-0.004C0.265,-0.011 0.258,-0.022 0.256,-0.036C0.254,-0.052 0.257,-0.072 0.264,-0.096C0.271,-0.119 0.28,-0.144 0.29,-0.17C0.3,-0.195 0.31,-0.22 0.319,-0.244C0.328,-0.268 0.334,-0.288 0.335,-0.304C0.338,-0.326 0.333,-0.339 0.32,-0.342C0.307,-0.345 0.286,-0.333 0.256,-0.308C0.249,-0.302 0.237,-0.29 0.221,-0.271C0.204,-0.252 0.187,-0.23 0.169,-0.203C0.15,-0.176 0.133,-0.147 0.117,-0.115C0.1,-0.082 0.089,-0.049 0.082,-0.016C0.083,-0.007 0.078,0.001 0.069,0.008C0.06,0.014 0.049,0.017 0.036,0.016C0.023,0.015 0.01,0.011 -0.004,0.002C-0.017,-0.008 -0.026,-0.022 -0.032,-0.043C-0.036,-0.059 -0.036,-0.083 -0.033,-0.116C-0.029,-0.149 -0.023,-0.184 -0.014,-0.223C-0.005,-0.261 0.007,-0.299 0.02,-0.336C0.033,-0.373 0.048,-0.404 0.063,-0.429C0.071,-0.442 0.084,-0.45 0.101,-0.455C0.118,-0.459 0.135,-0.459 0.152,-0.456C0.169,-0.453 0.182,-0.446 0.192,-0.437C0.201,-0.427 0.202,-0.414 0.195,-0.399C0.191,-0.392 0.186,-0.382 0.181,-0.369C0.175,-0.356 0.169,-0.342 0.162,-0.326C0.155,-0.309 0.147,-0.292 0.14,-0.273C0.133,-0.254 0.126,-0.234 0.119,-0.214C0.135,-0.247 0.153,-0.278 0.173,-0.307C0.192,-0.336 0.215,-0.361 0.24,-0.384C0.269,-0.409 0.297,-0.428 0.324,-0.44C0.351,-0.452 0.376,-0.458 0.398,-0.458C0.42,-0.458 0.438,-0.452 0.453,-0.441C0.468,-0.43 0.477,-0.414 0.482,-0.394C0.483,-0.389 0.484,-0.383 0.484,-0.376C0.484,-0.369 0.484,-0.36 0.483,-0.351C0.493,-0.363 0.504,-0.374 0.516,-0.384C0.545,-0.409 0.573,-0.428 0.6,-0.44C0.627,-0.452 0.652,-0.458 0.674,-0.458C0.696,-0.458 0.714,-0.452 0.729,-0.441C0.744,-0.43 0.753,-0.414 0.758,-0.394C0.761,-0.378 0.761,-0.359 0.757,-0.338C0.753,-0.316 0.747,-0.294 0.739,-0.271C0.731,-0.248 0.723,-0.225 0.715,-0.203C0.706,-0.18 0.699,-0.16 0.694,-0.143C0.689,-0.126 0.687,-0.112 0.688,-0.102C0.689,-0.091 0.695,-0.087 0.707,-0.088C0.718,-0.089 0.729,-0.095 0.741,-0.107C0.752,-0.118 0.764,-0.133 0.776,-0.15C0.788,-0.167 0.8,-0.187 0.813,-0.208C0.826,-0.229 0.838,-0.249 0.851,-0.27C0.862,-0.287 0.872,-0.298 0.882,-0.304C0.892,-0.31 0.9,-0.312 0.906,-0.309C0.912,-0.306 0.916,-0.3 0.917,-0.29C0.918,-0.279 0.914,-0.267 0.907,-0.252C0.9,-0.237 0.89,-0.219 0.88,-0.199C0.869,-0.178 0.856,-0.157 0.843,-0.136C0.829,-0.115 0.814,-0.094 0.798,-0.075C0.782,-0.055 0.766,-0.039 0.749,-0.026C0.73,-0.012 0.709,-0.003 0.689,0.002C0.668,0.006 0.648,0.006 0.629,0.002C0.61,-0.003 0.594,-0.011 0.58,-0.023C0.566,-0.035 0.557,-0.05 0.553,-0.068Z" style="fill-rule:nonzero;"/>
        </g>
        <g transform="matrix(266.667,0,0,266.667,1050.13,224)">
            <path d="M0.512,-0.27C0.523,-0.287 0.533,-0.298 0.543,-0.304C0.553,-0.31 0.561,-0.312 0.567,-0.309C0.573,-0.306 0.577,-0.3 0.578,-0.29C0.579,-0.279 0.575,-0.267 0.568,-0.252C0.561,-0.237 0.551,-0.22 0.538,-0.202C0.525,-0.183 0.511,-0.165 0.495,-0.146C0.478,-0.127 0.46,-0.109 0.44,-0.092C0.419,-0.074 0.398,-0.058 0.375,-0.045C0.34,-0.024 0.302,-0.01 0.262,-0.004C0.221,0.002 0.183,0.001 0.147,-0.007C0.111,-0.014 0.079,-0.029 0.052,-0.051C0.024,-0.072 0.005,-0.1 -0.005,-0.134C-0.016,-0.17 -0.017,-0.207 -0.009,-0.245C0,-0.282 0.015,-0.317 0.037,-0.35C0.059,-0.383 0.086,-0.41 0.119,-0.433C0.152,-0.456 0.188,-0.47 0.227,-0.476C0.264,-0.481 0.297,-0.479 0.326,-0.469C0.355,-0.458 0.379,-0.444 0.397,-0.425C0.414,-0.405 0.425,-0.384 0.429,-0.361C0.433,-0.337 0.429,-0.314 0.416,-0.292C0.405,-0.274 0.391,-0.257 0.374,-0.242C0.357,-0.227 0.336,-0.214 0.311,-0.203C0.286,-0.192 0.258,-0.183 0.227,-0.178C0.195,-0.173 0.16,-0.171 0.121,-0.174C0.123,-0.149 0.131,-0.129 0.145,-0.114C0.158,-0.099 0.175,-0.089 0.196,-0.084C0.217,-0.079 0.239,-0.078 0.264,-0.081C0.289,-0.084 0.313,-0.09 0.336,-0.1C0.365,-0.112 0.395,-0.133 0.427,-0.163C0.458,-0.193 0.487,-0.229 0.512,-0.27ZM0.322,-0.395C0.309,-0.402 0.292,-0.403 0.273,-0.396C0.254,-0.389 0.234,-0.377 0.215,-0.361C0.196,-0.345 0.178,-0.326 0.162,-0.303C0.145,-0.28 0.134,-0.256 0.127,-0.231C0.161,-0.232 0.192,-0.241 0.221,-0.256C0.249,-0.271 0.272,-0.287 0.291,-0.306C0.31,-0.325 0.322,-0.343 0.329,-0.36C0.335,-0.377 0.333,-0.389 0.322,-0.395Z" style="fill-rule:nonzero;"/>
        </g>
        <g transform="matrix(266.667,0,0,266.667,1186.67,224)">
            <path d="M0.063,-0.429C0.071,-0.442 0.084,-0.45 0.101,-0.455C0.118,-0.459 0.135,-0.459 0.152,-0.456C0.169,-0.453 0.182,-0.446 0.192,-0.437C0.201,-0.427 0.202,-0.414 0.195,-0.399C0.191,-0.392 0.186,-0.382 0.18,-0.369C0.174,-0.356 0.168,-0.341 0.161,-0.324C0.154,-0.307 0.146,-0.289 0.139,-0.27C0.132,-0.251 0.125,-0.231 0.118,-0.211C0.134,-0.244 0.152,-0.276 0.172,-0.306C0.192,-0.335 0.215,-0.361 0.241,-0.384C0.27,-0.409 0.298,-0.428 0.325,-0.44C0.352,-0.452 0.377,-0.458 0.399,-0.458C0.42,-0.458 0.439,-0.452 0.454,-0.441C0.468,-0.43 0.478,-0.414 0.483,-0.394C0.486,-0.378 0.486,-0.359 0.482,-0.338C0.477,-0.316 0.471,-0.294 0.464,-0.271C0.456,-0.248 0.448,-0.225 0.439,-0.203C0.43,-0.18 0.424,-0.16 0.419,-0.143C0.413,-0.126 0.412,-0.112 0.413,-0.102C0.414,-0.091 0.42,-0.087 0.432,-0.088C0.442,-0.089 0.453,-0.095 0.465,-0.107C0.476,-0.118 0.488,-0.133 0.501,-0.15C0.513,-0.167 0.525,-0.187 0.538,-0.208C0.551,-0.229 0.563,-0.249 0.576,-0.27C0.587,-0.287 0.597,-0.298 0.607,-0.304C0.617,-0.31 0.625,-0.312 0.631,-0.309C0.637,-0.306 0.641,-0.3 0.642,-0.29C0.643,-0.279 0.639,-0.267 0.632,-0.252C0.625,-0.237 0.615,-0.219 0.604,-0.199C0.593,-0.178 0.58,-0.157 0.567,-0.136C0.553,-0.115 0.538,-0.094 0.523,-0.075C0.507,-0.055 0.491,-0.039 0.474,-0.026C0.455,-0.012 0.435,-0.003 0.414,0.002C0.393,0.006 0.373,0.006 0.354,0.002C0.335,-0.003 0.319,-0.011 0.305,-0.023C0.291,-0.035 0.282,-0.05 0.278,-0.068C0.274,-0.085 0.274,-0.104 0.278,-0.125C0.282,-0.146 0.288,-0.167 0.295,-0.188C0.302,-0.209 0.309,-0.229 0.318,-0.25C0.326,-0.27 0.332,-0.288 0.336,-0.304C0.341,-0.325 0.337,-0.338 0.323,-0.341C0.309,-0.344 0.287,-0.333 0.257,-0.308C0.25,-0.302 0.238,-0.29 0.221,-0.271C0.204,-0.252 0.187,-0.23 0.169,-0.203C0.151,-0.176 0.134,-0.147 0.118,-0.115C0.101,-0.082 0.089,-0.049 0.082,-0.016C0.083,-0.007 0.078,0.001 0.069,0.008C0.06,0.014 0.049,0.017 0.036,0.016C0.023,0.015 0.01,0.011 -0.003,0.002C-0.016,-0.008 -0.025,-0.022 -0.031,-0.043C-0.036,-0.059 -0.036,-0.083 -0.033,-0.116C-0.029,-0.149 -0.023,-0.184 -0.014,-0.223C-0.005,-0.261 0.007,-0.299 0.02,-0.336C0.033,-0.373 0.048,-0.404 0.063,-0.429Z" style="fill-rule:nonzero;"/>
        </g>
        <g transform="matrix(266.667,0,0,266.667,1340.27,224)">
            <path d="M-0.007,-0.606C0.019,-0.608 0.044,-0.611 0.067,-0.614C0.09,-0.616 0.111,-0.62 0.132,-0.623C0.142,-0.638 0.153,-0.653 0.164,-0.666C0.174,-0.679 0.186,-0.691 0.197,-0.701C0.213,-0.715 0.229,-0.724 0.244,-0.729C0.259,-0.734 0.272,-0.734 0.284,-0.73C0.296,-0.726 0.306,-0.718 0.313,-0.706C0.32,-0.694 0.323,-0.679 0.322,-0.66C0.343,-0.662 0.357,-0.661 0.366,-0.658C0.377,-0.653 0.383,-0.646 0.386,-0.636C0.389,-0.625 0.388,-0.615 0.385,-0.604C0.382,-0.592 0.376,-0.582 0.368,-0.573C0.359,-0.564 0.349,-0.558 0.337,-0.555C0.332,-0.554 0.325,-0.553 0.316,-0.552C0.307,-0.551 0.296,-0.551 0.285,-0.55C0.272,-0.527 0.255,-0.503 0.235,-0.478C0.215,-0.453 0.193,-0.427 0.168,-0.399C0.166,-0.391 0.164,-0.383 0.161,-0.374C0.158,-0.365 0.155,-0.354 0.152,-0.343C0.148,-0.331 0.144,-0.316 0.14,-0.299C0.136,-0.281 0.132,-0.262 0.129,-0.243C0.126,-0.224 0.123,-0.204 0.122,-0.186C0.121,-0.167 0.121,-0.15 0.122,-0.135C0.123,-0.12 0.126,-0.109 0.131,-0.1C0.136,-0.091 0.143,-0.087 0.153,-0.088C0.163,-0.089 0.174,-0.095 0.186,-0.107C0.197,-0.118 0.209,-0.133 0.222,-0.15C0.234,-0.167 0.246,-0.187 0.259,-0.208C0.272,-0.229 0.284,-0.249 0.297,-0.27C0.308,-0.287 0.318,-0.298 0.328,-0.304C0.338,-0.31 0.346,-0.312 0.352,-0.309C0.358,-0.306 0.362,-0.3 0.363,-0.29C0.364,-0.279 0.36,-0.267 0.353,-0.252C0.346,-0.237 0.336,-0.218 0.324,-0.197C0.311,-0.175 0.298,-0.153 0.284,-0.131C0.269,-0.108 0.254,-0.087 0.239,-0.068C0.224,-0.048 0.209,-0.033 0.195,-0.022C0.182,-0.013 0.167,-0.006 0.149,-0.002C0.131,0.003 0.113,0.004 0.095,0.002C0.077,0 0.06,-0.006 0.045,-0.015C0.029,-0.024 0.017,-0.038 0.009,-0.056C-0.001,-0.077 -0.007,-0.101 -0.01,-0.127C-0.013,-0.153 -0.013,-0.181 -0.01,-0.21C-0.007,-0.239 -0.002,-0.268 0.005,-0.299C0.012,-0.33 0.021,-0.361 0.03,-0.392C0.038,-0.418 0.047,-0.444 0.057,-0.471C0.067,-0.497 0.078,-0.523 0.09,-0.548L0.024,-0.548C0.004,-0.548 -0.009,-0.548 -0.014,-0.547C-0.022,-0.546 -0.028,-0.548 -0.033,-0.554C-0.037,-0.559 -0.039,-0.566 -0.039,-0.574C-0.038,-0.581 -0.035,-0.588 -0.03,-0.595C-0.025,-0.601 -0.017,-0.605 -0.007,-0.606Z" style="fill-rule:nonzero;"/>
        </g>
        <g transform="matrix(266.667,0,0,266.667,1419.47,224)">
            <path d="M-0.026,-0.225C-0.018,-0.241 -0.009,-0.258 0.002,-0.275C0.012,-0.292 0.023,-0.309 0.034,-0.326C0.045,-0.343 0.057,-0.359 0.068,-0.375C0.079,-0.39 0.09,-0.404 0.1,-0.417C0.094,-0.427 0.091,-0.438 0.092,-0.45C0.092,-0.462 0.095,-0.474 0.1,-0.486C0.105,-0.497 0.113,-0.508 0.123,-0.519C0.132,-0.529 0.143,-0.537 0.156,-0.544C0.168,-0.549 0.181,-0.552 0.195,-0.551C0.208,-0.55 0.221,-0.546 0.232,-0.541C0.243,-0.536 0.252,-0.528 0.258,-0.519C0.264,-0.509 0.265,-0.498 0.262,-0.487C0.257,-0.472 0.248,-0.458 0.235,-0.444C0.221,-0.429 0.207,-0.417 0.194,-0.406C0.224,-0.386 0.249,-0.364 0.27,-0.34C0.29,-0.316 0.306,-0.292 0.317,-0.268C0.328,-0.243 0.334,-0.219 0.336,-0.195C0.337,-0.17 0.335,-0.148 0.328,-0.127C0.321,-0.108 0.311,-0.089 0.297,-0.071C0.282,-0.053 0.264,-0.038 0.241,-0.025C0.218,-0.012 0.19,-0.002 0.159,0.005C0.128,0.011 0.092,0.012 0.051,0.008C0.015,0.004 -0.014,-0.007 -0.037,-0.025C-0.059,-0.042 -0.074,-0.063 -0.081,-0.087C-0.088,-0.11 -0.088,-0.134 -0.079,-0.16C-0.07,-0.185 -0.052,-0.206 -0.026,-0.225ZM0.093,-0.051C0.115,-0.051 0.134,-0.061 0.149,-0.081C0.164,-0.101 0.175,-0.127 0.181,-0.158C0.186,-0.189 0.187,-0.224 0.182,-0.262C0.177,-0.3 0.165,-0.337 0.147,-0.374C0.13,-0.353 0.113,-0.33 0.096,-0.307C0.079,-0.283 0.063,-0.261 0.05,-0.24C0.062,-0.237 0.072,-0.233 0.081,-0.226C0.09,-0.219 0.096,-0.212 0.1,-0.205C0.104,-0.198 0.106,-0.191 0.105,-0.184C0.103,-0.177 0.099,-0.172 0.091,-0.169C0.067,-0.16 0.05,-0.148 0.041,-0.135C0.031,-0.121 0.027,-0.108 0.028,-0.096C0.029,-0.083 0.036,-0.073 0.047,-0.064C0.058,-0.055 0.074,-0.051 0.093,-0.051Z" style="fill-rule:nonzero;"/>
        </g>
    </g>
</svg>
