<?xml version="1.0" encoding="UTF-8"?>
<svg width="46px" height="29px" viewBox="0 0 46 29" version="1.1" xmlns="http://www.w3.org/2000/svg" xmlns:xlink="http://www.w3.org/1999/xlink">
    <title>Group 2</title>
    <desc>Created with Sketch.</desc>
    <defs></defs>
    <g id="Page-1" stroke="none" stroke-width="1" fill="none" fill-rule="evenodd">
        <g id="Custom-Preset" transform="translate(-360.000000, -271.000000)" fill="#083E8D">
            <g id="Group-2" transform="translate(360.000000, 271.000000)">
                <g id="Group">
                    <path d="M15.9300665,1.2436326 C12.8851002,0.18166431 9.9872435,2.9712408 5.99682146,2.37929459 C2.00639942,1.78719859 -0.42032841,5.35055903 0.0603945397,6.85738568 C0.541989681,8.36451189 2.95519854,6.09828056 5.15224923,8.39476825 C7.34886384,10.6911062 10.3419348,11.6531685 11.4680795,10.5311369 C12.5946604,9.40910524 11.9121704,8.23899294 13.645942,7.47464538 C15.3801497,6.70999826 16.6225866,4.41096424 16.8749407,3.37356052 C17.1582577,2.2110872 17.0073685,1.61929077 15.9300665,1.2436326" id="Fill-4"></path>
                    <path d="M30.5308916,2.18098544 C28.9862011,3.12773397 31.2357113,3.8972868 31.9231653,5.72565166 C32.291434,6.70263477 32.5669897,7.98632591 32.6110499,9.07717757 C32.6535314,10.1198946 33.2327724,10.4142681 34.1007727,9.24775476 C35.5461484,7.30476925 36.2712042,6.49926585 40.6615811,7.26626152 C42.885545,7.65449761 44.8547635,6.22519915 45.6179953,4.97460059 C45.9038843,4.50543811 46.6679772,2.75920301 44.6529763,2.8104965 C42.9346284,2.85472022 42.2928133,2.87547829 41.031859,1.82674445 C39.5241964,0.571182008 38.0373439,-0.0222280594 36.8066721,0.000635902634 C35.7621438,0.020190607 34.9125138,0.526958292 34.2760089,0.989953523 C32.9141611,1.98242998 31.6411513,1.50063215 30.5308916,2.18098544" id="Fill-5"></path>
                    <path d="M12.7901911,10 C11.764526,11.6988541 12.6902612,13.0603291 12.9664514,15.1403603 C13.2420886,17.220242 11.5178353,19.3877197 12.1340088,18.9409203 C12.7492604,18.4945694 14.1860766,17.3362394 13.979948,15.5210889 C13.7747412,13.7065364 12.6675833,11.4671582 12.7492604,10.8879185 C12.8313063,10.3089777 12.7901911,10 12.7901911,10" id="Fill-6"></path>
                    <path d="M27.060454,18.7481536 C26.6146538,18.7144477 26.0085743,19.1115729 25.5574066,19.4520895 C24.9247879,19.9287262 27.2283373,19.8100352 27.5350299,19.2769338 C27.6507292,19.0761385 27.3289778,18.7686077 27.060454,18.7481536 Z M30.9644111,19.7864122 C31.1370655,20.9266528 30.6271536,20.487035 30.5945014,20.7108771 C30.5825736,20.7856352 30.6420633,20.9469628 30.7468786,21.0609005 C30.9837938,21.3164319 30.881215,21.6498904 30.6165677,22.2957771 C30.1399045,23.4590645 29.269625,24.3086274 28.768808,23.7693321 C28.5102737,23.4903218 27.9599565,23.9181281 27.3040786,23.992454 C26.650288,24.066924 25.763757,23.5829411 25.2709912,22.8615761 C24.7788219,22.1402111 24.4509574,21.5507891 25.0692629,21.3502819 C25.6886121,21.1490545 24.2605605,20.5312561 24.0577885,20.0240824 C23.8535256,19.5167646 24.2296974,19.2273831 24.5785845,18.8316983 C24.928068,18.4361575 26.2120918,17.9909221 27.0734254,18.0001408 C30.5415719,18.0374478 30.8542284,19.0568368 30.9644111,19.7864122 Z" id="Fill-7"></path>
                    <path d="M20.7604842,25.7549925 C21.1757387,25.8535593 20.9691271,25.9715162 20.7532296,25.9919347 C19.9205442,26.0696423 18.9056227,25.602809 17.772596,23.8497603 C17.3254211,23.157002 16.7110998,23.0134852 16.3147073,22.5523808 C15.4480703,21.5430631 14.9013621,20.4607384 14.3262157,19.0072093 C13.4885972,16.8892726 14.4882839,18.7188538 14.8317177,19.0407014 C15.8933589,20.0344482 16.0591996,21.2887873 16.7595607,22.0225294 C17.4603571,22.7567122 18.3056655,22.8721719 18.7405075,23.8551954 C19.3348061,25.1959089 20.1870789,25.619555 20.7604842,25.7549925" id="Fill-8"></path>
                    <path d="M32.5841757,10.1329763 C32.5364168,10.998076 32.6194076,12.036754 32.2997103,12.6865483 C31.9801435,13.3361875 31.9801435,14.4969443 32.0153754,14.8686099 C32.0512598,15.2401204 32.0863613,14.7755384 32.2997103,14.0790533 C32.5130593,13.3827232 32.8328871,12.9648321 32.9744674,12.1755857 C33.1167001,11.3863393 32.6199296,9.48287177 32.5841757,10.1329763" id="Fill-9"></path>
                    <path d="M30.1127342,9.31086849 C29.7731975,9.5124497 29.4759879,9.83865014 29.3874998,10.1740268 C29.4804353,10.5953937 29.6871631,10.7709262 29.8159846,10.837528 C30.0906505,10.2566129 30.3772783,9.94876499 30.521129,9.84175822 C30.4548779,9.73963558 30.1127342,9.31086849 30.1127342,9.31086849 Z M30.3048929,12.7010442 C30.7235628,12.5897453 31.8463035,12.1756306 31.9932213,10.7870587 C32.0814027,9.94980101 31.2929845,9.10958328 30.5751113,9.01767291 C29.8587718,8.92591053 29.2082232,9.17958909 29.0287933,10.0590278 C28.8505902,10.9384666 29.5650894,12.5443081 29.3851994,12.77327 C29.3143476,13.2702669 29.8869898,12.811455 30.3048929,12.7010442 Z" id="Fill-10"></path>
                    <path d="M20.6226092,1.55613648 C22.4287877,1.02410981 24.6657978,0.917215954 25.5353661,1.0542355 C26.4046304,1.19102242 24.6455788,1.061796 24.2273651,1.18078667 C23.4517467,1.40085542 25.1273379,1.479252 26.2222035,1.75061584 C27.3175251,2.02244495 28.4120866,2.33847391 28.9920522,2.96680974 C29.0945153,3.14267863 28.1987991,2.57750207 26.7372555,2.26007733 C25.2755598,1.94265258 23.3837926,1.6665198 20.6638073,1.83087347 C19.8814998,1.87379386 19.6970966,1.82238245 20.6226092,1.55613648" id="Fill-11"></path>
                    <path d="M30.9152059,23.0930062 C30.7413262,22.6461446 30.5528277,23.9296322 30.4580865,24.3973794 C30.2559532,25.3815569 29.7320651,25.754793 29.2866127,25.9388567 C28.758086,26.0344196 28.1740359,25.8138437 27.8729443,25.4499234 C27.4199013,24.9043435 27.4738785,24.3099304 27.2118642,24.578438 C26.9713565,24.8238062 26.7620543,25.169245 26.0571177,25.662686 C24.5925646,26.685329 22.8655755,25.9169193 22.2728103,25.5429319 C22.0050328,25.3058278 21.8613748,25.5597606 22.1901577,25.9024948 C23.0931512,26.8430979 24.464931,27.1374496 25.4268215,26.9433188 C25.9081182,26.8458026 26.4890759,26.7975703 27.0163375,26.7781873 C27.5417717,26.7588043 28.0123854,26.7684207 28.2774922,26.787954 C28.5416149,26.8068862 28.7573832,26.7811924 28.9443354,26.7243956 C29.3635021,26.6581327 29.9946417,26.3927804 30.3051511,25.9112096 C31.1766579,24.5607078 31.0241442,23.3726328 30.9152059,23.0930062" id="Fill-12"></path>
                    <path d="M18.6306188,10.3051594 C18.5077312,10.4218173 18.2775391,10.7423076 18.1107728,11.313407 C17.9694315,11.2683314 17.7298075,11.1316871 17.5589404,10.7543561 C17.5839554,10.4328736 17.8208455,10.0939561 18.1240321,9.86574315 C18.1240321,9.86574315 18.5462788,10.2186936 18.6306188,10.3051594 Z M20.2243304,10.1617112 C20.4680552,10.562714 20.4804943,12.0126457 20.1204432,12.2897614 C19.760392,12.5668771 19.7329166,11.8320598 19.9926346,11.3126982 C20.0824423,11.1333881 20.1681493,10.4174231 20.1384867,10.3303904 C20.1086875,10.2437828 20.1424509,10.0266262 20.2243304,10.1617112 Z M20.9288496,12.5186831 C20.8868846,12.5870052 20.8256458,12.6296711 20.7521046,12.6415779 L20.4713358,12.6784322 C20.1410839,12.7179796 19.6424254,12.7776552 18.9852022,12.9582411 C18.613122,13.0610078 18.2070051,12.9725575 17.8416229,12.7099 C17.3867064,12.3828893 17.060692,11.8384385 17.0109355,11.3226205 C17.003554,11.247211 17,11.1729355 17,11.1002192 C17,10.8096375 17.0580948,10.5418771 17.1727808,10.3014739 C17.487723,9.64461757 18.612712,8.59937397 19.7895078,9.15927528 C20.7380252,9.61116524 20.7955732,10.4831938 20.8338475,11.0603883 C20.8453297,11.2341703 20.8557184,11.384564 20.8852443,11.4918666 C20.9641165,11.77366 21.0744283,12.2821071 20.9288496,12.5186831 Z" id="Fill-13"></path>
                    <path d="M16.7033299,28.3281774 C12.4968774,26.5911901 10,23.6922192 10,20.7049575 C10,20.4974605 10.0121145,20.2895456 10.0364861,20.0810737 C10.0733998,19.7680177 10.2333117,19.2870144 10.3605856,19 C10.4232962,22.2816568 13.0920575,25.6474265 17.0560767,27.4115695 C17.9103654,27.7918879 19.9816662,28.4929217 20.0630474,28.5172921 C20.6106245,28.6807831 20.8292563,28.7238144 21,28.7838354 C20.4360327,29.152456 18.5252138,29.0803195 16.7033299,28.3281774" id="Fill-14"></path>
                </g>
            </g>
        </g>
    </g>
</svg>